<svg id="svg" version="1.1" xmlns="http://www.w3.org/2000/svg" xmlns:xlink="http://www.w3.org/1999/xlink" width="400" height="78.51176917236143" viewBox="0, 0, 400,78.51176917236143"><g id="svgg"><path id="path0" d="M399.500 39.250 C 399.500 74.028,399.528 78.500,399.750 78.500 C 399.972 78.500,400.000 74.028,400.000 39.250 C 400.000 4.472,399.972 0.000,399.750 0.000 C 399.528 0.000,399.500 4.472,399.500 39.250 M187.742 6.005 C 176.732 6.911,167.011 16.614,167.001 26.708 L 167.000 27.333 170.667 27.333 L 174.333 27.333 174.334 26.542 C 174.339 20.523,178.347 12.815,183.167 9.553 C 190.844 4.356,201.804 9.267,202.453 18.194 L 202.546 19.472 203.148 19.388 C 205.809 19.017,207.805 17.857,208.609 16.213 C 211.020 11.284,204.129 6.871,192.667 6.004 C 190.226 5.820,189.992 5.820,187.742 6.005 M222.320 6.000 C 218.309 6.688,216.661 11.823,219.551 14.627 C 222.918 17.894,228.389 15.700,228.389 11.083 C 228.389 7.836,225.538 5.448,222.320 6.000 M260.499 21.164 C 256.841 21.750,252.457 24.632,249.615 28.318 L 248.917 29.223 248.833 25.403 L 248.750 21.583 241.431 21.583 C 235.723 21.583,234.096 21.629,234.042 21.792 C 233.995 21.931,234.161 22.000,234.543 22.000 C 235.932 22.000,238.260 23.204,239.220 24.418 C 240.828 26.451,240.831 26.480,240.832 43.708 L 240.833 58.500 244.833 58.500 L 248.833 58.500 248.834 44.958 L 248.836 31.417 249.929 29.966 C 256.112 21.768,262.765 20.612,265.824 27.204 C 267.108 29.970,267.056 29.269,267.122 44.708 L 267.181 58.500 271.179 58.500 L 275.178 58.500 275.161 44.921 L 275.144 31.343 275.664 30.587 C 277.713 27.610,281.077 24.560,283.639 23.360 C 286.671 21.938,290.244 23.573,291.960 27.167 C 293.263 29.896,293.213 29.232,293.288 44.711 L 293.356 58.506 297.386 58.461 L 301.417 58.417 301.417 45.333 C 301.417 33.148,301.395 32.159,301.105 30.917 C 298.290 18.852,284.411 17.431,275.828 28.328 C 274.599 29.888,274.617 29.880,274.341 28.958 C 272.696 23.457,266.823 20.150,260.499 21.164 M212.611 21.611 C 212.365 21.857,212.528 22.000,213.054 22.000 C 215.030 22.000,217.583 23.750,218.521 25.750 C 219.294 27.395,219.327 28.131,219.330 43.792 L 219.333 58.500 223.333 58.500 L 227.333 58.500 227.333 40.000 L 227.333 21.500 220.028 21.500 C 216.010 21.500,212.672 21.550,212.611 21.611 M167.071 29.789 C 168.534 45.934,188.148 55.173,204.162 47.261 C 207.851 45.439,209.185 44.297,208.750 43.334 C 208.385 42.523,208.580 42.493,207.133 43.579 C 202.456 47.088,194.892 49.209,189.517 48.520 C 182.674 47.643,176.776 41.204,174.765 32.417 C 174.115 29.577,172.516 28.503,168.935 28.501 L 166.954 28.500 167.071 29.789 M98.000 31.583 L 98.000 33.167 123.833 33.167 L 149.667 33.167 149.667 31.583 L 149.667 30.000 123.833 30.000 L 98.000 30.000 98.000 31.583 M98.000 41.250 L 98.000 42.833 123.833 42.833 L 149.667 42.833 149.667 41.250 L 149.667 39.667 123.833 39.667 L 98.000 39.667 98.000 41.250 M98.000 51.000 L 98.000 52.667 123.833 52.667 L 149.667 52.667 149.667 51.000 L 149.667 49.333 123.833 49.333 L 98.000 49.333 98.000 51.000 M184.083 53.097 C 180.850 53.876,178.972 54.898,177.446 56.709 C 176.586 57.728,176.628 57.747,178.595 57.218 C 181.368 56.473,185.273 56.548,188.417 57.408 C 195.209 59.265,198.381 59.097,200.988 56.741 C 201.705 56.093,202.562 54.713,202.138 54.889 C 199.514 55.977,197.126 55.947,193.583 54.784 C 189.203 53.346,185.661 52.717,184.083 53.097 M201.778 65.611 C 201.717 65.672,201.667 67.660,201.667 70.028 L 201.667 74.333 202.167 74.333 L 202.667 74.333 202.667 69.917 L 202.667 65.500 202.278 65.500 C 202.064 65.500,201.839 65.550,201.778 65.611 M247.452 65.603 C 247.387 65.669,247.333 66.396,247.333 67.220 L 247.333 68.718 246.987 68.405 C 246.214 67.705,244.687 68.178,244.236 69.258 C 243.064 72.064,245.171 75.739,247.002 74.081 C 247.353 73.763,247.500 73.767,247.500 74.094 C 247.500 74.281,247.631 74.340,247.958 74.303 L 248.417 74.250 248.417 69.917 L 248.417 65.583 247.994 65.534 C 247.761 65.507,247.517 65.538,247.452 65.603 M169.187 66.007 C 166.183 66.681,166.068 73.544,169.048 74.346 C 170.641 74.775,172.333 73.583,172.333 72.031 C 172.333 71.373,171.389 71.527,171.245 72.208 C 170.962 73.549,169.453 74.003,168.610 73.002 C 167.871 72.123,167.765 68.804,168.440 67.644 C 169.143 66.436,170.693 66.618,171.162 67.964 C 171.447 68.784,172.333 69.040,172.333 68.303 C 172.333 66.811,170.751 65.656,169.187 66.007 M207.167 70.167 L 207.167 74.333 207.667 74.333 L 208.167 74.333 208.167 70.167 L 208.167 66.000 207.667 66.000 L 207.167 66.000 207.167 70.167 M174.837 68.284 C 173.060 69.201,172.903 72.998,174.595 74.106 C 176.323 75.239,178.167 73.813,178.167 71.343 C 178.167 68.801,176.608 67.369,174.837 68.284 M181.125 68.307 C 180.635 68.561,180.500 68.581,180.500 68.399 C 180.500 68.252,180.316 68.167,180.000 68.167 L 179.500 68.167 179.500 71.250 L 179.500 74.333 180.000 74.333 L 180.500 74.333 180.500 72.029 C 180.500 69.429,180.721 68.908,181.770 69.029 C 182.513 69.115,182.661 69.628,182.664 72.125 L 182.667 74.333 183.167 74.333 L 183.667 74.333 183.667 71.995 C 183.667 68.445,182.928 67.373,181.125 68.307 M186.299 68.265 C 184.748 68.930,184.452 73.113,185.889 74.048 C 187.203 74.903,189.333 74.086,189.333 72.728 C 189.333 72.079,188.626 72.198,188.290 72.904 C 187.871 73.781,186.590 73.779,186.190 72.901 C 185.848 72.152,185.948 69.945,186.345 69.439 C 186.944 68.678,188.039 68.857,188.338 69.765 C 188.630 70.649,189.422 70.608,189.277 69.717 C 189.061 68.389,187.633 67.693,186.299 68.265 M191.672 68.307 C 190.101 69.150,189.897 73.128,191.378 74.065 C 192.551 74.808,194.889 74.297,194.593 73.362 C 194.461 72.949,194.131 72.891,193.849 73.232 C 193.094 74.141,191.596 73.419,191.465 72.083 L 191.417 71.583 193.125 71.536 L 194.833 71.488 194.830 70.703 C 194.820 68.611,193.281 67.444,191.672 68.307 M197.583 68.115 C 196.438 68.427,195.595 69.833,196.552 69.833 C 196.948 69.833,197.131 69.735,197.252 69.458 C 197.655 68.540,199.009 68.974,199.058 70.037 C 199.083 70.581,199.080 70.584,198.167 70.672 C 196.630 70.820,196.000 71.390,196.000 72.631 C 196.000 74.163,197.797 75.131,198.676 74.073 C 198.933 73.762,199.167 73.767,199.167 74.083 C 199.167 74.254,199.338 74.333,199.708 74.334 L 200.250 74.334 200.199 72.125 C 200.116 68.561,199.487 67.597,197.583 68.115 M211.503 68.265 C 211.126 68.428,210.902 68.455,210.864 68.342 C 210.832 68.245,210.624 68.167,210.403 68.167 L 210.000 68.167 210.000 71.261 L 210.000 74.355 210.458 74.303 L 210.917 74.250 210.963 71.924 C 211.014 69.370,211.146 69.000,212.000 69.000 C 212.877 69.000,213.000 69.367,213.000 71.982 L 213.000 74.354 213.542 74.302 L 214.083 74.250 214.167 71.900 C 214.257 69.343,214.375 69.000,215.161 69.000 C 216.022 69.000,216.152 69.366,216.203 71.924 L 216.250 74.250 216.708 74.303 L 217.167 74.355 217.167 71.764 L 217.167 69.172 216.684 68.631 C 216.065 67.939,215.131 67.884,214.310 68.491 C 213.951 68.756,213.747 68.824,213.703 68.692 C 213.504 68.096,212.390 67.880,211.503 68.265 M220.292 68.325 C 219.777 68.607,219.667 68.623,219.667 68.417 C 219.667 68.250,219.500 68.167,219.167 68.167 L 218.667 68.167 218.667 72.417 L 218.667 76.667 219.167 76.667 L 219.667 76.667 219.667 75.319 C 219.667 74.307,219.718 73.994,219.875 74.059 C 222.006 74.942,223.014 74.209,223.134 71.687 C 223.275 68.723,222.100 67.333,220.292 68.325 M225.939 68.345 C 225.575 68.632,225.500 68.646,225.500 68.429 C 225.500 68.249,225.344 68.167,225.000 68.167 L 224.500 68.167 224.500 71.250 L 224.500 74.333 225.000 74.333 L 225.500 74.333 225.500 72.120 C 225.500 69.612,225.652 69.167,226.509 69.167 C 226.959 69.167,227.000 69.118,227.000 68.583 C 227.000 67.886,226.629 67.803,225.939 68.345 M229.179 68.284 C 227.454 69.187,227.260 72.878,228.874 74.062 C 229.948 74.849,231.605 74.373,232.177 73.112 C 233.436 70.338,231.428 67.105,229.179 68.284 M239.899 68.230 C 238.285 68.957,237.911 72.694,239.333 73.890 C 240.215 74.633,241.888 74.602,242.587 73.829 C 243.074 73.291,242.568 72.839,241.940 73.250 C 240.874 73.948,239.716 73.435,239.549 72.191 L 239.456 71.500 241.228 71.500 C 243.238 71.500,243.136 71.597,242.830 69.981 C 242.536 68.431,241.212 67.640,239.899 68.230 M233.335 68.375 C 233.345 69.392,235.139 74.250,235.504 74.250 C 235.836 74.250,237.589 69.346,237.664 68.208 C 237.698 67.692,236.647 68.292,236.496 68.875 C 236.395 69.265,236.157 70.183,235.968 70.917 C 235.568 72.462,235.417 72.707,235.270 72.054 C 234.546 68.843,234.292 68.167,233.808 68.167 C 233.538 68.167,233.334 68.257,233.335 68.375 M176.657 69.324 C 177.312 69.978,177.356 72.552,176.724 73.184 C 175.603 74.304,174.583 73.389,174.583 71.263 C 174.583 69.148,175.564 68.231,176.657 69.324 M193.488 69.235 C 193.595 69.364,193.726 69.739,193.780 70.068 L 193.877 70.667 192.688 70.667 C 191.500 70.667,191.500 70.667,191.500 70.204 C 191.500 69.184,192.885 68.509,193.488 69.235 M221.766 69.351 C 222.265 69.903,222.232 72.675,221.720 73.188 C 220.606 74.302,219.667 73.407,219.667 71.232 C 219.667 69.134,220.718 68.193,221.766 69.351 M230.991 69.324 C 231.645 69.978,231.689 72.552,231.057 73.184 C 229.815 74.426,228.468 72.782,228.825 70.459 C 229.035 69.096,230.169 68.502,230.991 69.324 M241.529 69.276 C 241.708 69.438,241.833 69.781,241.833 70.109 L 241.833 70.667 240.646 70.667 L 239.458 70.667 239.564 70.136 C 239.775 69.082,240.813 68.628,241.529 69.276 M247.029 69.276 C 247.457 69.664,247.480 72.728,247.058 73.195 C 246.408 73.913,245.268 73.461,245.071 72.408 C 244.619 69.998,245.778 68.144,247.029 69.276 M199.135 72.039 C 199.235 73.253,197.600 74.101,197.133 73.077 C 196.730 72.190,197.505 71.280,198.583 71.373 C 199.031 71.412,199.089 71.482,199.135 72.039 " stroke="none" fill="#f4d2d2" fill-rule="evenodd"></path><path id="path1" d="M0.000 39.250 L 0.000 78.500 199.750 78.500 L 399.500 78.500 399.500 39.250 L 399.500 0.000 199.750 0.000 L 0.000 0.000 0.000 39.250 M192.667 6.004 C 204.129 6.871,211.020 11.284,208.609 16.213 C 207.805 17.857,205.809 19.017,203.148 19.388 L 202.546 19.472 202.453 18.194 C 201.804 9.267,190.844 4.356,183.167 9.553 C 178.347 12.815,174.339 20.523,174.334 26.542 L 174.333 27.333 170.667 27.333 L 167.000 27.333 167.001 26.708 C 167.011 16.614,176.732 6.911,187.742 6.005 C 189.992 5.820,190.226 5.820,192.667 6.004 M225.431 6.412 C 227.949 7.535,229.126 10.673,227.968 13.174 C 225.661 18.157,218.121 16.559,218.102 11.083 C 218.089 7.297,221.929 4.849,225.431 6.412 M266.756 21.542 C 270.388 22.593,273.285 25.426,274.341 28.958 C 274.617 29.880,274.599 29.888,275.828 28.328 C 283.542 18.534,296.417 18.537,300.299 28.334 C 301.441 31.215,301.417 30.845,301.417 45.333 L 301.417 58.417 297.386 58.461 L 293.356 58.506 293.288 44.711 C 293.213 29.232,293.263 29.896,291.960 27.167 C 290.244 23.573,286.671 21.938,283.639 23.360 C 281.077 24.560,277.713 27.610,275.664 30.587 L 275.144 31.343 275.161 44.921 L 275.178 58.500 271.179 58.500 L 267.181 58.500 267.122 44.708 C 267.056 29.269,267.108 29.970,265.824 27.204 C 262.765 20.612,256.112 21.768,249.929 29.966 L 248.836 31.417 248.834 44.958 L 248.833 58.500 244.833 58.500 L 240.833 58.500 240.832 43.708 C 240.831 26.480,240.828 26.451,239.220 24.418 C 238.260 23.204,235.932 22.000,234.543 22.000 C 234.161 22.000,233.995 21.931,234.042 21.792 C 234.096 21.629,235.723 21.583,241.431 21.583 L 248.750 21.583 248.833 25.403 L 248.917 29.223 249.615 28.318 C 254.160 22.424,260.775 19.809,266.756 21.542 M227.333 40.000 L 227.333 58.500 223.333 58.500 L 219.333 58.500 219.330 43.792 C 219.327 28.131,219.294 27.395,218.521 25.750 C 217.583 23.750,215.030 22.000,213.054 22.000 C 212.528 22.000,212.365 21.857,212.611 21.611 C 212.672 21.550,216.010 21.500,220.028 21.500 L 227.333 21.500 227.333 40.000 M171.537 28.674 C 173.048 29.094,174.350 30.603,174.765 32.417 C 176.776 41.204,182.674 47.643,189.517 48.520 C 194.892 49.209,202.456 47.088,207.133 43.579 C 208.580 42.493,208.385 42.523,208.750 43.334 C 209.185 44.297,207.851 45.439,204.162 47.261 C 188.148 55.173,168.534 45.934,167.071 29.789 L 166.954 28.500 168.935 28.501 C 170.025 28.501,171.196 28.579,171.537 28.674 M149.667 31.583 L 149.667 33.167 123.833 33.167 L 98.000 33.167 98.000 31.583 L 98.000 30.000 123.833 30.000 L 149.667 30.000 149.667 31.583 M149.667 41.250 L 149.667 42.833 123.833 42.833 L 98.000 42.833 98.000 41.250 L 98.000 39.667 123.833 39.667 L 149.667 39.667 149.667 41.250 M149.667 51.000 L 149.667 52.667 123.833 52.667 L 98.000 52.667 98.000 51.000 L 98.000 49.333 123.833 49.333 L 149.667 49.333 149.667 51.000 M189.500 53.575 C 190.463 53.819,192.300 54.363,193.583 54.784 C 197.126 55.947,199.514 55.977,202.138 54.889 C 202.562 54.713,201.705 56.093,200.988 56.741 C 198.381 59.097,195.209 59.265,188.417 57.408 C 185.273 56.548,181.368 56.473,178.595 57.218 C 176.628 57.747,176.586 57.728,177.446 56.709 C 178.972 54.898,180.850 53.876,184.083 53.097 C 184.917 52.896,187.831 53.153,189.500 53.575 M202.667 69.917 L 202.667 74.333 202.167 74.333 L 201.667 74.333 201.667 70.028 C 201.667 65.493,201.666 65.500,202.278 65.500 L 202.667 65.500 202.667 69.917 M248.417 69.917 L 248.417 74.250 247.958 74.303 C 247.631 74.340,247.500 74.281,247.500 74.094 C 247.500 73.767,247.353 73.763,247.002 74.081 C 245.171 75.739,243.064 72.064,244.236 69.258 C 244.687 68.178,246.214 67.705,246.987 68.405 L 247.333 68.718 247.333 67.220 C 247.333 65.573,247.377 65.462,247.994 65.534 L 248.417 65.583 248.417 69.917 M171.212 66.311 C 171.707 66.595,172.333 67.707,172.333 68.303 C 172.333 69.040,171.447 68.784,171.162 67.964 C 170.693 66.618,169.143 66.436,168.440 67.644 C 167.765 68.804,167.871 72.123,168.610 73.002 C 169.453 74.003,170.962 73.549,171.245 72.208 C 171.389 71.527,172.333 71.373,172.333 72.031 C 172.333 74.134,169.432 75.248,167.959 73.711 C 166.476 72.163,166.620 67.592,168.187 66.451 C 169.043 65.829,170.272 65.772,171.212 66.311 M208.167 70.167 L 208.167 74.333 207.667 74.333 L 207.167 74.333 207.167 70.167 L 207.167 66.000 207.667 66.000 L 208.167 66.000 208.167 70.167 M177.172 68.504 C 178.576 69.504,178.504 73.168,177.062 74.113 C 175.262 75.292,173.502 73.868,173.501 71.233 C 173.500 68.517,175.305 67.175,177.172 68.504 M182.968 68.376 C 183.513 68.828,183.667 69.622,183.667 71.995 L 183.667 74.333 183.167 74.333 L 182.667 74.333 182.664 72.125 C 182.661 69.628,182.513 69.115,181.770 69.029 C 180.721 68.908,180.500 69.429,180.500 72.029 L 180.500 74.333 180.000 74.333 L 179.500 74.333 179.500 71.250 L 179.500 68.167 180.000 68.167 C 180.316 68.167,180.500 68.252,180.500 68.399 C 180.500 68.581,180.635 68.561,181.125 68.307 C 181.782 67.967,182.508 67.994,182.968 68.376 M188.698 68.621 C 189.388 69.311,189.540 70.333,188.951 70.333 C 188.615 70.333,188.487 70.214,188.338 69.765 C 188.039 68.857,186.944 68.678,186.345 69.439 C 185.948 69.945,185.848 72.152,186.190 72.901 C 186.590 73.779,187.871 73.781,188.290 72.904 C 188.626 72.198,189.333 72.079,189.333 72.728 C 189.333 74.678,186.013 75.026,185.264 73.153 C 183.982 69.950,186.588 66.511,188.698 68.621 M193.594 68.244 C 194.313 68.544,194.824 69.562,194.830 70.703 L 194.833 71.488 193.125 71.536 L 191.417 71.583 191.465 72.083 C 191.596 73.419,193.094 74.141,193.849 73.232 C 194.131 72.891,194.461 72.949,194.593 73.362 C 195.057 74.826,191.497 74.759,190.722 73.290 C 189.354 70.696,191.296 67.284,193.594 68.244 M199.428 68.409 C 199.973 68.766,200.139 69.567,200.199 72.125 L 200.250 74.334 199.708 74.334 C 199.338 74.333,199.167 74.254,199.167 74.083 C 199.167 73.767,198.933 73.762,198.676 74.073 C 197.797 75.131,196.000 74.163,196.000 72.631 C 196.000 71.390,196.630 70.820,198.167 70.672 C 199.080 70.584,199.083 70.581,199.058 70.037 C 199.009 68.974,197.655 68.540,197.252 69.458 C 196.964 70.115,195.960 69.997,196.192 69.333 C 196.597 68.170,198.315 67.679,199.428 68.409 M213.160 68.246 C 213.422 68.382,213.666 68.582,213.703 68.692 C 213.747 68.824,213.951 68.756,214.310 68.491 C 215.131 67.884,216.065 67.939,216.684 68.631 L 217.167 69.172 217.167 71.764 L 217.167 74.355 216.708 74.303 L 216.250 74.250 216.203 71.924 C 216.152 69.366,216.022 69.000,215.161 69.000 C 214.375 69.000,214.257 69.343,214.167 71.900 L 214.083 74.250 213.542 74.302 L 213.000 74.354 213.000 71.982 C 213.000 69.367,212.877 69.000,212.000 69.000 C 211.146 69.000,211.014 69.370,210.963 71.924 L 210.917 74.250 210.458 74.303 L 210.000 74.355 210.000 71.261 L 210.000 68.167 210.403 68.167 C 210.624 68.167,210.832 68.245,210.864 68.342 C 210.902 68.455,211.126 68.428,211.503 68.265 C 212.242 67.944,212.568 67.941,213.160 68.246 M222.442 68.524 C 223.000 69.048,223.213 70.024,223.134 71.687 C 223.014 74.209,222.006 74.942,219.875 74.059 C 219.718 73.994,219.667 74.307,219.667 75.319 L 219.667 76.667 219.167 76.667 L 218.667 76.667 218.667 72.417 L 218.667 68.167 219.167 68.167 C 219.500 68.167,219.667 68.250,219.667 68.417 C 219.667 68.623,219.777 68.607,220.292 68.325 C 221.048 67.910,221.870 67.986,222.442 68.524 M227.000 68.583 C 227.000 69.118,226.959 69.167,226.509 69.167 C 225.652 69.167,225.500 69.612,225.500 72.120 L 225.500 74.333 225.000 74.333 L 224.500 74.333 224.500 71.250 L 224.500 68.167 225.000 68.167 C 225.344 68.167,225.500 68.249,225.500 68.429 C 225.500 68.646,225.575 68.632,225.939 68.345 C 226.629 67.803,227.000 67.886,227.000 68.583 M231.505 68.504 C 232.886 69.487,232.824 73.177,231.411 74.102 C 229.538 75.330,227.778 73.815,227.867 71.053 C 227.952 68.423,229.686 67.208,231.505 68.504 M242.205 68.632 C 242.510 68.935,242.716 69.378,242.830 69.981 C 243.136 71.597,243.238 71.500,241.228 71.500 L 239.456 71.500 239.549 72.191 C 239.716 73.435,240.874 73.948,241.940 73.250 C 242.568 72.839,243.074 73.291,242.587 73.829 C 241.532 74.995,239.166 74.429,238.658 72.890 C 237.621 69.747,240.204 66.646,242.205 68.632 M234.723 69.875 C 234.965 70.815,235.211 71.795,235.270 72.054 C 235.417 72.707,235.568 72.462,235.968 70.917 C 236.157 70.183,236.395 69.265,236.496 68.875 C 236.647 68.292,237.698 67.692,237.664 68.208 C 237.662 68.231,237.266 69.600,236.783 71.250 C 235.574 75.377,235.459 75.385,234.221 71.417 C 233.186 68.097,233.195 68.167,233.808 68.167 C 234.270 68.167,234.294 68.212,234.723 69.875 M174.901 69.351 C 174.401 69.903,174.435 72.675,174.947 73.188 C 176.232 74.473,177.548 72.670,177.094 70.246 C 176.873 69.072,175.618 68.559,174.901 69.351 M191.759 69.370 C 191.112 70.294,191.379 70.667,192.688 70.667 L 193.877 70.667 193.780 70.068 C 193.599 68.953,192.353 68.523,191.759 69.370 M220.000 69.333 C 219.535 69.798,219.505 72.597,219.960 73.158 C 220.956 74.389,222.083 73.383,222.083 71.263 C 222.083 69.139,221.103 68.231,220.000 69.333 M229.249 69.334 C 228.595 70.057,228.627 72.534,229.299 73.207 C 230.566 74.474,231.878 72.649,231.427 70.246 C 231.209 69.086,229.951 68.559,229.249 69.334 M239.944 69.303 C 239.794 69.469,239.623 69.844,239.564 70.136 L 239.458 70.667 240.646 70.667 L 241.833 70.667 241.833 70.109 C 241.833 69.118,240.592 68.588,239.944 69.303 M245.408 69.343 C 244.846 69.964,244.864 72.674,245.435 73.245 C 246.460 74.269,247.333 73.338,247.333 71.221 C 247.333 69.094,246.431 68.213,245.408 69.343 M197.669 71.544 C 196.723 72.032,196.849 73.500,197.837 73.500 C 199.064 73.500,199.774 71.476,198.583 71.373 C 198.308 71.350,197.897 71.426,197.669 71.544 " stroke="none" fill="#fc3434" fill-rule="evenodd"></path></g></svg>